<?xml version="1.0" encoding="utf-8"?>
<!-- Generator: Adobe Illustrator 17.1.0, SVG Export Plug-In . SVG Version: 6.00 Build 0)  -->
<!DOCTYPE svg PUBLIC "-//W3C//DTD SVG 1.1//EN" "http://www.w3.org/Graphics/SVG/1.1/DTD/svg11.dtd">
<svg version="1.1" id="Layer_1" xmlns="http://www.w3.org/2000/svg" xmlns:xlink="http://www.w3.org/1999/xlink" x="0px" y="0px"
	 viewBox="0.749 318.806 611.281 154.388" enable-background="new 0.749 318.806 611.281 154.388" xml:space="preserve">
<g>
	<path fill="#A67459" d="M0.749,379.01c0-5.845,0.388-9.946,1.166-12.308c0.942-0.055,3.247-0.178,6.91-0.373
		c3.663-0.195,7.284-0.347,10.864-0.459c3.58-0.109,7.174-0.167,10.783-0.167c3.609,0,7.229,0.055,10.864,0.167
		c3.635,0.112,7.41,0.25,11.323,0.416c3.913,0.167,6.285,0.305,7.117,0.416c0.778,2.362,1.166,6.463,1.166,12.308
		c0,2.491-0.195,4.465-0.583,5.925c-2.776,0.554-5.024,0.833-6.744,0.833c-2.443,0-4.496-0.466-6.161-1.401l-1.415-5.033
		c-0.778-0.488-3.221-0.783-7.327-0.892c0.333,7.015,0.5,13.345,0.5,18.99c0,5.954-0.304,10.533-0.916,13.73
		c0.276,0,0.916,0.086,1.915,0.255c1.444,0.224,2.414,0.478,2.914,0.759c0.333,0.338,0.5,1.855,0.5,4.555
		c0,2.923-0.167,4.584-0.5,4.976c-1.054,1.52-5.107,2.279-12.155,2.279c-7.217,0-11.351-0.759-12.405-2.279
		c-0.333-0.392-0.5-2.05-0.5-4.976c0-2.7,0.167-4.217,0.5-4.555c0.5-0.281,1.47-0.535,2.914-0.759
		c0.999-0.169,1.637-0.255,1.915-0.255c-0.611-3.197-0.916-7.776-0.916-13.73c0-5.645,0.167-11.975,0.5-18.99
		c-4.108,0.109-6.551,0.404-7.327,0.892l-1.415,5.033c-1.665,0.935-3.718,1.401-6.161,1.401c-1.722,0-3.968-0.278-6.744-0.833
		C0.942,383.475,0.749,381.5,0.749,379.01z"/>
	<path fill="#A67459" d="M57.364,405.5c0-2.609,0.511-5.271,1.539-7.993c1.025-2.719,2.526-5.288,4.496-7.702
		c1.97-2.414,4.634-4.398,7.993-5.952c3.356-1.553,7.117-2.331,11.28-2.331c4.608,0,8.202,0.93,10.783,2.788
		c2.581,1.86,3.87,4.51,3.87,7.952c0,4.662-2.15,8.449-6.451,11.363c-4.303,2.914-9.118,4.37-14.446,4.37
		c-1.444,0-2.914-0.138-4.413-0.416c0.112,3.942,3.497,5.911,10.157,5.911c1.166,0,2.165-0.078,2.997-0.24
		c0-0.428,0.083-0.883,0.25-1.365c2.441-1.927,5.079-2.89,7.909-2.89c0.554,0,0.971,0.017,1.249,0.05
		c3.663,1.986,5.911,5.243,6.744,9.765c-0.055,0.44-0.264,0.906-0.626,1.399c-0.362,0.495-0.737,0.921-1.125,1.277
		c-0.388,0.357-0.944,0.768-1.665,1.235c-0.723,0.466-1.289,0.811-1.708,1.03c-0.416,0.219-1.028,0.547-1.832,0.99
		c-0.804,0.438-1.263,0.685-1.373,0.74c-0.333,0-0.611-0.038-0.833-0.114c-0.224-0.081-0.431-0.209-0.626-0.39
		c-0.195-0.183-0.319-0.312-0.373-0.39s-0.167-0.288-0.333-0.623c-0.167-0.338-0.278-0.533-0.333-0.59
		c-3.109,1.182-6.299,1.775-9.574,1.775c-7.438,0-13.226-1.915-17.358-5.745C59.431,415.574,57.364,410.94,57.364,405.5z
		 M73.599,396.841c0,1.832,1.332,2.747,3.996,2.747c1.998,0,3.913-0.471,5.745-1.415c1.832-0.942,2.747-2.108,2.747-3.497
		c0-0.942-0.319-1.929-0.956-2.957c-0.64-1.028-1.651-1.539-3.038-1.539c-1.722,0-3.568,0.695-5.538,2.081
		C74.583,393.651,73.599,395.176,73.599,396.841z"/>
	<path fill="#A67459" d="M103.904,402.883c0-5.616,1.651-10.609,4.955-14.977c3.302-4.367,7.755-6.551,13.364-6.551
		c1.998,0,4.163,0.333,6.494,0.999c0-0.109-0.043-1.206-0.126-3.285c-0.083-2.079-0.124-4.284-0.124-6.615
		c0-5.459,0.138-8.464,0.419-9.015c1.953-1.653,6.753-2.481,14.401-2.481c2.524,0,4.631,0.152,6.323,0.454
		c1.691,0.302,2.709,0.564,3.054,0.787l0.599,0.331c0.228,0.497,0.345,2.039,0.345,4.631c0,2.648-0.112,4.22-0.333,4.715
		c-0.295,0.442-0.954,0.799-1.981,1.075c-1.028,0.276-2.01,0.414-2.95,0.414c-0.702,0-1.166-0.029-1.394-0.083
		c0,0.944,0.026,3.233,0.083,6.867c0.055,3.637,0.083,6.815,0.083,9.534c0,9.922-0.278,16.444-0.833,19.565
		c0.169-0.057,0.652-0.086,1.446-0.086c1.211,0,2.702,0.195,4.467,0.585c0.44,0.331,0.661,2.676,0.661,7.036
		c0,2.429-0.083,3.973-0.25,4.636c-1.556,1.71-5.607,2.567-12.155,2.567c-0.224,0-3.335-0.109-9.339-0.333
		c-0.285-1.047-0.428-2.012-0.428-2.895c0-0.44,0.029-0.69,0.086-0.745c-0.892,0.276-2.693,1.118-5.397,2.526
		c-2.707,1.408-4.979,2.112-6.82,2.112c-2.943,0-5.578-1.189-7.909-3.57c-2.331-2.381-4.037-5.205-5.119-8.473
		C104.444,409.336,103.904,406.097,103.904,402.883z M116.642,403.468c0,1.784,0.528,3.318,1.582,4.6
		c1.054,1.282,2.441,1.924,4.163,1.924c2.295,0,4.41-1.004,6.344-3.011c1.932-2.008,2.897-4.296,2.897-6.86
		c0-1.896-0.547-3.487-1.646-4.769c-1.099-1.282-2.548-1.927-4.348-1.927c-2.331,0-4.413,1.075-6.244,3.223
		C117.558,398.799,116.642,401.07,116.642,403.468z"/>
	<path fill="#A67459" d="M156.353,402.883c0-5.616,1.651-10.609,4.955-14.977c3.302-4.367,7.755-6.551,13.364-6.551
		c1.998,0,4.163,0.333,6.494,0.999c0-0.109-0.043-1.206-0.126-3.285c-0.083-2.079-0.124-4.284-0.124-6.615
		c0-5.459,0.138-8.464,0.419-9.015c1.953-1.653,6.753-2.481,14.401-2.481c2.524,0,4.631,0.152,6.323,0.454
		c1.691,0.302,2.709,0.564,3.054,0.787l0.599,0.331c0.228,0.497,0.345,2.039,0.345,4.631c0,2.648-0.112,4.22-0.333,4.715
		c-0.295,0.442-0.954,0.799-1.982,1.075c-1.028,0.276-2.01,0.414-2.95,0.414c-0.702,0-1.166-0.029-1.394-0.083
		c0,0.944,0.026,3.233,0.083,6.867c0.055,3.637,0.083,6.815,0.083,9.534c0,9.922-0.278,16.444-0.833,19.565
		c0.169-0.057,0.652-0.086,1.446-0.086c1.211,0,2.702,0.195,4.467,0.585c0.44,0.331,0.661,2.676,0.661,7.036
		c0,2.429-0.083,3.973-0.25,4.636c-1.556,1.71-5.607,2.567-12.155,2.567c-0.224,0-3.335-0.109-9.339-0.333
		c-0.285-1.047-0.428-2.012-0.428-2.895c0-0.44,0.029-0.69,0.086-0.745c-0.892,0.276-2.693,1.118-5.397,2.526
		c-2.707,1.408-4.979,2.112-6.82,2.112c-2.943,0-5.578-1.189-7.909-3.57c-2.331-2.381-4.037-5.205-5.119-8.473
		C156.895,409.336,156.353,406.097,156.353,402.883z M169.091,403.468c0,1.784,0.528,3.318,1.582,4.6
		c1.054,1.282,2.441,1.924,4.163,1.924c2.295,0,4.41-1.004,6.344-3.011c1.932-2.008,2.897-4.296,2.897-6.86
		c0-1.896-0.547-3.487-1.646-4.769c-1.099-1.282-2.548-1.927-4.348-1.927c-2.331,0-4.413,1.075-6.244,3.223
		C170.009,398.799,169.091,401.07,169.091,403.468z"/>
	<path fill="#A67459" d="M204.96,441.797c0-2.705,0.404-5.964,1.208-9.772c0.804-3.811,1.484-5.992,2.039-6.544
		c0.654-0.278,1.392-0.416,2.212-0.416c2.455,0,4.629,0.607,6.515,1.824c0.117,0,0.174,0.397,0.174,1.189
		c0,0.528-0.031,0.949-0.088,1.268c0.814,0.157,1.922,0.397,3.321,0.714c1.396,0.316,2.431,0.554,3.102,0.714
		c0.668,0.157,1.446,0.316,2.329,0.473c0.885,0.159,1.703,0.278,2.462,0.357c0.756,0.078,1.565,0.119,2.424,0.119
		c4.581,0,7.895-1.03,9.941-3.088c2.043-2.058,3.285-5.552,3.728-10.483c-5.766,4.441-11.535,6.66-17.298,6.66
		c-9.817,0-14.722-6.772-14.722-20.315c0-3.109,0.174-5.94,0.523-8.492c-0.057,0.055-0.314,0.083-0.771,0.083
		c-0.821,0-2.103-0.138-3.849-0.416c-0.657-1.168-0.985-3.119-0.985-5.847c0-3.116,0.354-5.302,1.066-6.561
		c4.27-1.166,8.171-1.748,11.701-1.748c3.732,0,6.979,0.528,9.739,1.582c1.092,1.422,1.637,3.499,1.637,6.235
		c0,2.488-0.428,4.396-1.282,5.723c-0.523,0.412-1.187,0.616-1.993,0.616c-0.238,0-0.404-0.029-0.5-0.088s-0.2-0.131-0.319-0.221
		c-0.119-0.088-0.247-0.159-0.392-0.219c-0.285,1.675-0.428,3.487-0.428,5.44c0,3.221,0.671,5.69,2.01,7.41
		c1.339,1.722,2.978,2.581,4.915,2.581c2.35,0,4.405-0.985,6.166-2.957c1.76-1.97,2.643-4.648,2.643-8.033
		c0-1.396-0.169-2.876-0.504-4.441c-0.671,0.407-1.539,0.609-2.6,0.609c-1.006,0-1.622-0.145-1.846-0.435
		c-0.894-0.333-1.342-1.974-1.342-4.919c0-2.957,0.442-4.681,1.325-5.174c2.65-1.86,7.505-2.793,14.567-2.793
		c6.235,0,10.167,0.633,11.796,1.898c0.169,0.654,0.252,1.748,0.252,3.278c0,3.064-0.319,4.976-0.952,5.742
		c-0.347,0.492-1.154,0.737-2.422,0.737c-0.749,0-1.701-0.274-2.854-0.821c0.055,1.232,0.205,3.188,0.452,5.871
		c0.247,2.683,0.452,5.274,0.616,7.771c0.164,2.498,0.245,4.829,0.245,6.994c0,5.773-0.604,10.766-1.815,14.986
		c-1.211,4.218-2.888,7.507-5.031,9.865c-2.143,2.357-4.482,4.08-7.01,5.162s-5.307,1.625-8.33,1.625
		c-3.071,0-5.483-0.043-7.239-0.124c-1.756-0.083-4.018-0.397-6.787-0.937c-2.769-0.542-5.25-1.382-7.441-2.519
		c-0.526,1.879-0.844,2.819-0.961,2.819c-0.34,0.283-1.556,0.426-3.647,0.426c-3.471,0-5.288-0.228-5.454-0.683
		C205.043,443.845,204.96,442.934,204.96,441.797z"/>
	<path fill="#A67459" d="M282.569,379.01c0-5.845,0.388-9.946,1.166-12.308c0.942-0.055,3.247-0.178,6.91-0.373
		c3.663-0.195,7.284-0.347,10.864-0.459c3.58-0.109,7.174-0.167,10.783-0.167c3.609,0,7.229,0.055,10.864,0.167
		c3.635,0.112,7.41,0.25,11.323,0.416c3.913,0.167,6.285,0.305,7.117,0.416c0.778,2.362,1.166,6.463,1.166,12.308
		c0,2.491-0.195,4.465-0.583,5.925c-2.776,0.554-5.024,0.833-6.744,0.833c-2.443,0-4.496-0.466-6.161-1.401l-1.415-5.033
		c-0.778-0.488-3.221-0.783-7.327-0.892c0.333,7.015,0.5,13.345,0.5,18.99c0,5.954-0.305,10.533-0.916,13.73
		c0.276,0,0.916,0.086,1.915,0.255c1.444,0.224,2.414,0.478,2.914,0.759c0.333,0.338,0.5,1.855,0.5,4.555
		c0,2.923-0.167,4.584-0.5,4.976c-1.054,1.52-5.107,2.279-12.155,2.279c-7.217,0-11.351-0.759-12.405-2.279
		c-0.333-0.392-0.5-2.05-0.5-4.976c0-2.7,0.167-4.217,0.5-4.555c0.5-0.281,1.47-0.535,2.914-0.759
		c0.999-0.169,1.637-0.255,1.915-0.255c-0.611-3.197-0.916-7.776-0.916-13.73c0-5.645,0.167-11.975,0.5-18.99
		c-4.108,0.109-6.551,0.404-7.327,0.892l-1.415,5.033c-1.665,0.935-3.718,1.401-6.161,1.401c-1.722,0-3.968-0.278-6.744-0.833
		C282.764,383.475,282.569,381.5,282.569,379.01z"/>
	<path fill="#A67459" d="M339.186,405.5c0-2.609,0.511-5.271,1.539-7.993c1.025-2.719,2.526-5.288,4.496-7.702
		s4.634-4.398,7.993-5.952c3.356-1.553,7.117-2.331,11.28-2.331c4.608,0,8.202,0.93,10.783,2.788c2.581,1.86,3.87,4.51,3.87,7.952
		c0,4.662-2.15,8.449-6.451,11.363c-4.303,2.914-9.118,4.37-14.446,4.37c-1.444,0-2.914-0.138-4.413-0.416
		c0.112,3.942,3.497,5.911,10.157,5.911c1.166,0,2.165-0.078,2.997-0.24c0-0.428,0.083-0.883,0.25-1.365
		c2.441-1.927,5.079-2.89,7.909-2.89c0.554,0,0.971,0.017,1.249,0.05c3.663,1.986,5.911,5.243,6.744,9.765
		c-0.055,0.44-0.264,0.906-0.626,1.399c-0.362,0.495-0.737,0.921-1.125,1.277c-0.388,0.357-0.944,0.768-1.665,1.235
		c-0.723,0.466-1.289,0.811-1.708,1.03c-0.416,0.219-1.028,0.547-1.832,0.99c-0.804,0.438-1.263,0.685-1.373,0.74
		c-0.333,0-0.611-0.038-0.833-0.114c-0.224-0.081-0.431-0.209-0.626-0.39c-0.195-0.183-0.319-0.312-0.373-0.39
		s-0.167-0.288-0.333-0.623c-0.167-0.338-0.278-0.533-0.333-0.59c-3.109,1.182-6.299,1.775-9.574,1.775
		c-7.438,0-13.226-1.915-17.358-5.745C341.251,415.574,339.186,410.94,339.186,405.5z M355.421,396.841
		c0,1.832,1.332,2.747,3.996,2.747c1.998,0,3.913-0.471,5.745-1.415c1.832-0.942,2.747-2.108,2.747-3.497
		c0-0.942-0.319-1.929-0.956-2.957c-0.64-1.028-1.651-1.539-3.038-1.539c-1.722,0-3.568,0.695-5.538,2.081
		C356.406,393.651,355.421,395.176,355.421,396.841z"/>
	<path fill="#A67459" d="M385.724,402.883c0-5.616,1.651-10.609,4.955-14.977c3.302-4.367,7.755-6.551,13.364-6.551
		c1.998,0,4.163,0.333,6.494,0.999c0-0.109-0.043-1.206-0.126-3.285c-0.083-2.079-0.124-4.284-0.124-6.615
		c0-5.459,0.138-8.464,0.419-9.015c1.953-1.653,6.753-2.481,14.401-2.481c2.524,0,4.631,0.152,6.323,0.454
		c1.691,0.302,2.709,0.564,3.054,0.787l0.599,0.331c0.228,0.497,0.345,2.039,0.345,4.631c0,2.648-0.112,4.22-0.333,4.715
		c-0.295,0.442-0.954,0.799-1.981,1.075c-1.028,0.276-2.01,0.414-2.95,0.414c-0.702,0-1.166-0.029-1.394-0.083
		c0,0.944,0.026,3.233,0.083,6.867c0.055,3.637,0.083,6.815,0.083,9.534c0,9.922-0.278,16.444-0.833,19.565
		c0.169-0.057,0.652-0.086,1.446-0.086c1.211,0,2.702,0.195,4.467,0.585c0.44,0.331,0.661,2.676,0.661,7.036
		c0,2.429-0.083,3.973-0.25,4.636c-1.556,1.71-5.607,2.567-12.155,2.567c-0.224,0-3.335-0.109-9.339-0.333
		c-0.285-1.047-0.428-2.012-0.428-2.895c0-0.44,0.029-0.69,0.086-0.745c-0.892,0.276-2.693,1.118-5.397,2.526
		c-2.707,1.408-4.979,2.112-6.82,2.112c-2.943,0-5.578-1.189-7.909-3.57c-2.331-2.381-4.037-5.205-5.119-8.473
		C386.266,409.336,385.724,406.097,385.724,402.883z M398.462,403.468c0,1.784,0.528,3.318,1.582,4.6
		c1.054,1.282,2.441,1.924,4.163,1.924c2.296,0,4.41-1.004,6.344-3.011c1.932-2.008,2.897-4.296,2.897-6.86
		c0-1.896-0.547-3.487-1.646-4.769c-1.099-1.282-2.548-1.927-4.348-1.927c-2.331,0-4.413,1.075-6.244,3.223
		C399.38,398.799,398.462,401.07,398.462,403.468z"/>
	<path fill="#A67459" d="M439.174,390.763c0.112-7.881,1.199-14.292,3.264-19.232c2.733-1.441,5.385-2.165,7.952-2.165
		c1.061,0,2.483,0.221,4.27,0.666c-1.173,6.161-4.213,12.239-9.125,18.233c-2.067,1.722-3.768,2.581-5.105,2.581
		C439.871,390.846,439.453,390.82,439.174,390.763z"/>
	<path fill="#A67459" d="M455.326,421.164c0.055-1.599,0.304-3.171,0.749-4.715s1.261-2.992,2.457-4.344
		c1.192-1.349,2.621-2.027,4.286-2.027c1.387,0,2.9,0.257,4.539,0.768c1.637,0.511,2.455,1.254,2.455,2.227
		c0,0.195-0.055,0.488-0.167,0.875c1.998,0.585,3.359,0.875,4.08,0.875c1.277,0,2.4-0.426,3.371-1.277
		c0.971-0.849,1.458-1.884,1.458-3.102c0-1.323-0.514-2.315-1.539-2.973c-1.028-0.661-2.331-1.018-3.913-1.075
		c-1.582-0.057-3.276-0.224-5.079-0.502c-1.803-0.278-3.497-0.654-5.079-1.13c-1.582-0.473-2.888-1.491-3.913-3.054
		c-1.028-1.563-1.539-3.625-1.539-6.194c0-3.502,0.942-6.385,2.831-8.644c1.886-2.262,4.12-3.787,6.701-4.579
		c2.581-0.792,5.481-1.187,8.699-1.187c2.443,0,5.162,0.266,8.159,0.797c0.554-1.025,1.192-1.651,1.915-1.879
		c4.108,0.407,6.827,1.86,8.159,4.36c-0.112,1.618-0.373,3.195-0.792,4.727c-0.416,1.534-1.22,2.997-2.414,4.391
		c-1.194,1.394-2.652,2.091-4.37,2.091c-1.389,0-2.888-0.271-4.496-0.816c-1.61-0.545-2.414-1.334-2.414-2.374
		c0-0.207,0.055-0.519,0.167-0.935c-1.332-0.414-2.386-0.623-3.164-0.623c-1.332,0-2.472,0.442-3.413,1.323
		c-0.944,0.883-1.415,1.841-1.415,2.878c0,1.327,0.792,2.296,2.374,2.904c1.582,0.609,3.497,1.023,5.745,1.244
		s4.51,0.554,6.787,1.001c2.276,0.447,4.206,1.465,5.787,3.057s2.374,3.811,2.374,6.656c0,4.857-2.055,8.514-6.161,10.971
		c-4.108,2.455-8.992,3.685-14.653,3.685c-2.664,0-5.495-0.25-8.492-0.749c-0.554,0.999-1.194,1.608-1.915,1.832
		C459.377,425.229,456.658,423.735,455.326,421.164z"/>
</g>
<circle fill="#583624" cx="570.498" cy="357.775" r="27.563"/>
<ellipse transform="matrix(0.3118 -0.9501 0.9501 0.3118 -5.4685 807.415)" fill="#583624" cx="554.644" cy="407.483" rx="40.551" ry="30.413"/>
<ellipse transform="matrix(0.8436 -0.537 0.537 0.8436 -114.6156 343.532)" fill="#583624" cx="532.395" cy="368.514" rx="8.602" ry="19.527"/>
<ellipse transform="matrix(0.5078 0.8615 -0.8615 0.5078 626.0591 -321.0019)" fill="#583624" cx="593.959" cy="387.404" rx="8.772" ry="20.325"/>
<ellipse transform="matrix(-0.6118 -0.791 0.791 -0.6118 493.7751 1104.775)" fill="#583624" cx="517.977" cy="431.225" rx="11.62" ry="23.847"/>
<path fill="#583624" d="M563.452,431.34c-6.199,1.539-9.553,12.115-7.491,23.621s8.759,19.584,14.955,18.045
	c6.197-1.539,9.553-12.115,7.491-23.621C576.345,437.879,569.651,429.798,563.452,431.34z"/>
<circle fill="#583624" cx="553.074" cy="329.577" r="10.771"/>
<circle fill="#583624" cx="600.596" cy="347.953" r="10.771"/>
</svg>
