<?xml version="1.0" encoding="utf-8"?>
<!-- Generator: Adobe Illustrator 17.1.0, SVG Export Plug-In . SVG Version: 6.00 Build 0)  -->
<!DOCTYPE svg PUBLIC "-//W3C//DTD SVG 1.1//EN" "http://www.w3.org/Graphics/SVG/1.1/DTD/svg11.dtd">
<svg version="1.1" id="Layer_2" xmlns="http://www.w3.org/2000/svg" xmlns:xlink="http://www.w3.org/1999/xlink" x="0px" y="0px"
	 viewBox="54.829 0.199 141.909 141.909" enable-background="new 54.829 0.199 141.909 141.909" xml:space="preserve">
<circle fill="#FDCC9A" stroke="#573626" stroke-width="4" stroke-miterlimit="10" cx="125.783" cy="71.153" r="68.23"/>
<path fill="#40505E" d="M124.375,54.372c0,0-4.32-13.722,9.402-22.869c0,0,14.229-9.148,26.68,3.304c0,0,5.336,0.509,13.213-4.828
	c0,0,0.509,5.147-8.132,11.339c0,0,8.132-0.668,11.18-2.7c0,0,0,2.286-10.418,10.927c0,0,1.555,62.153-64.507,62.801
	c0,0-15.012,0.496-26.947-10.137c0,0,18.88,2.17,30.164-8.68c0,0-13.455,1.084-19.096-14.539c0,0,4.557,1.302,8.898-0.435
	c0,0-14.974-2.603-16.276-20.615c0,0,6.511,3.473,9.114,2.387c0,0-13.961-8.329-6.46-28.329
	C81.192,31.998,98.438,53.436,124.375,54.372"/>
</svg>
